<!DOCTYPE svg PUBLIC "-//W3C//DTD SVG 1.1//EN" "http://www.w3.org/Graphics/SVG/1.1/DTD/svg11.dtd">
<!-- Uploaded to: SVG Repo, www.svgrepo.com, Transformed by: SVG Repo Mixer Tools -->
<svg width="800px" height="800px" viewBox="0 0 24 24" fill="none" xmlns="http://www.w3.org/2000/svg" stroke="#ffffff">
<g id="SVGRepo_bgCarrier" stroke-width="0"/>
<g id="SVGRepo_tracerCarrier" stroke-linecap="round" stroke-linejoin="round"/>
<g id="SVGRepo_iconCarrier"> <path opacity="0.15" d="M5 14C5 10.5817 7.58172 6 12 3C16.4183 6 19 10.5817 19 14C19 18.4183 15.4183 21 12 21C8.58172 21 5 18.4183 5 14Z" fill="#ffffff"/> <path d="M11.5 16.5C10.1193 16.5 9 15.3807 9 14M5 14C5 10.5817 7.58172 6 12 3C16.4183 6 19 10.5817 19 14C19 18.4183 15.4183 21 12 21C8.58172 21 5 18.4183 5 14Z" stroke="#ffffff" stroke-width="1.5" stroke-linecap="round" stroke-linejoin="round"/> </g>
</svg>